-28.049560546875	4.578567028045654	27.59340476989746	4	4.96	PreCG.L
27.400489807128906	2.825397253036499	28.390300750732422	4	0.86	PreCG.R
-14.051918983459473	32.63621139526367	21.537004470825195	4	1.99	SFGdor.L
13.908709526062012	30.07921600341797	22.659584045410156	4	2.40	SFGdor.R
-12.742238998413086	41.30503845214844	-16.928783416748047	4	0.00	ORBsup.L
11.545740127563477	41.845542907714844	-17.420778274536133	4	0.83	ORBsup.R
-24.432348251342773	31.194866180419922	16.866506576538086	3	2.27	MFG.L
24.7811279296875	31.42354393005371	15.882513999938965	3	2.27	MFG.R
-22.505939483642578	43.460121154785156	-14.371790885925293	3	0.55	ORBmid.L
21.7252140045166	44.9569091796875	-15.140965461730957	3	0.57	ORBmid.R
-34.826629638671875	17.3358211517334	5.474367141723633	3	1.98	IFGoperc.L
33.51926040649414	18.894962310791016	7.130522727966309	3	0.03	IFGoperc.R
-32.85171890258789	29.240741729736328	1.9888157844543457	3	0.53	IFGtriang.L
33.60934829711914	29.413982391357422	2.1135470867156982	3	0.47	IFGtriang.R
-26.19937515258789	29.795101165771484	-16.097240447998047	3	0.17	ORBinf.L
27.296550750732422	30.848392486572266	-15.958647727966309	3	0.03	ORBinf.R
-33.94658279418945	2.6383004188537598	1.9610978364944458	1	2.00	ROL.L
35.21699523925781	4.183584213256836	2.432305335998535	1	0.27	ROL.R
-4.953454494476318	11.87535572052002	34.82782745361328	3	0.92	SMA.L
4.706302165985107	8.632339477539062	35.15351867675781	1	0.00	SMA.R
-6.852144718170166	18.943470001220703	-15.646821022033691	5	0.49	OLF.L
5.960546016693115	19.53940773010254	-15.508231163024902	4	0.23	OLF.R
-4.593119144439697	42.58700180053711	13.699712753295898	4	3.30	SFGmed.L
5.038918495178223	43.744239807128906	13.235432624816895	4	0.59	SFGmed.R
-4.84951114654541	45.97554397583008	-12.833436965942383	4	1.20	ORBsupmed.L
4.387543201446533	44.31938552856445	-12.64633846282959	4	2.04	ORBsupmed.R
-4.787145614624023	34.20227813720703	-20.275737762451172	4	0.00	REC.L
4.519205093383789	33.21135711669922	-20.206449508666992	4	0.01	REC.R
-25.61036491394043	13.122669219970703	-5.321831226348877	1	1.76	INS.L
25.77205467224121	12.845488548278809	-6.264245510101318	1	1.58	INS.R
-4.0664753913879395	33.04505157470703	1.9610978364944458	4	0.00	ACG.L
4.595429420471191	34.160701751708984	3.270777463912964	4	5.73	ACG.R
-5.064326763153076	-1.8243131637573242	21.100440979003906	5	0.00	DCG.L
4.290530681610107	2.3957667350769043	19.866989135742188	5	0.00	DCG.R
-4.627767086029053	-21.226978302001953	9.389547348022461	4	0.57	PCG.L
3.888618230819702	-20.45780372619629	7.449282169342041	4	2.78	PCG.R
-18.611547470092773	-5.857296466827393	-14.72519588470459	5	1.14	HIP.L
18.98805046081543	-5.1920623779296875	-14.863785743713379	5	1.34	HIP.R
-15.936752319335938	-2.5380542278289795	-22.049705505371094	5	2.04	PHG.L
16.32018280029297	-1.983691930770874	-21.890323638916016	5	2.07	PHG.R
-17.391948699951172	8.050257682800293	-19.582788467407227	5	0.18	AMYG.L
17.664512634277344	8.958024978637695	-19.83225440979004	5	0.18	AMYG.R
-6.214628219604492	-46.00002670288086	-3.242974281311035	2	0.57	CAL.L
9.813360214233398	-42.174930572509766	-1.1918359994888306	2	0.81	CAL.R
-5.376155376434326	-47.01173400878906	11.156575202941895	2	0.02	CUN.L
8.094839096069336	-46.47816467285156	11.856457710266113	2	0.13	CUN.R
-11.397911071777344	-38.301326751708984	-10.913954734802246	2	0.19	LING.L
10.021246910095215	-37.86476516723633	-10.387312889099121	2	1.35	LING.R
-12.72838020324707	-49.873634338378906	11.814879417419434	2	1.39	SOG.L
15.564866065979004	-47.51066207885742	13.491827964782715	2	1.71	SOG.R
-23.711673736572266	-47.427520751953125	3.4578752517700195	2	1.73	MOG.L
24.642539978027344	-46.713768005371094	5.751547336578369	2	1.19	MOG.R
-26.462697982788086	-45.73670196533203	-13.138333320617676	2	0.09	IOG.L
25.176115036010742	-48.30062484741211	-12.97895336151123	2	0.00	IOG.R
-22.859344482421875	-19.41144371032715	-21.724010467529297	2	6.48	FFG.L
22.272642135620117	-18.579898834228516	-21.689367294311523	2	0.90	FFG.R
-30.689708709716797	-7.166975975036621	26.193639755249023	1	1.77	PoCG.L
27.442068099975586	-9.148819923400879	28.70905876159668	1	1.10	PoCG.R
-17.516679763793945	-32.75770568847656	33.15087890625	1	2.04	SPG.L
16.826040267944336	-32.494388580322266	35.29903793334961	1	1.18	SPG.R
-30.925308227539062	-23.236539840698242	24.68300437927246	3	1.45	IPL.L
30.927616119384766	-23.562232971191406	26.623271942138672	3	0.09	IPL.R
-39.92676544189453	-14.796381950378418	13.394815444946289	1	0.21	SMG.L
38.65403366088867	-13.313465118408203	16.187410354614258	1	0.10	SMG.R
-31.853864669799805	-33.630828857421875	16.95659065246582	3	0.41	ANG.L
30.269311904907227	-33.04874801635742	19.06316375732422	3	0.04	ANG.R
-6.283923625946045	-30.33930778503418	25.56305503845215	4	0.73	PCUN.L
5.648716926574707	-30.325439453125	22.624937057495117	4	0.05	PCUN.R
-6.554174423217773	-9.058736801147461	40.84958267211914	1	0.85	PCL.L
3.9163358211517334	-13.375829696655273	39.4775390625	1	0.00	PCL.R
-9.208181381225586	16.137012481689453	-1.3027080297470093	5	0.34	CAU.L
9.016467094421387	16.87847137451172	-1.1779764890670776	5	0.88	CAU.R
-17.83543586730957	11.189332962036133	-6.042501926422119	5	1.04	PUT.L
17.9832706451416	11.916930198669434	-6.0009236335754395	5	2.83	PUT.R
-13.566851615905762	8.493748664855957	-7.560068130493164	5	0.61	PAL.L
13.423644065856934	8.639266967773438	-7.546208381652832	5	0.23	PAL.R
-8.785481452941895	-3.653707265853882	-2.1758275032043457	5	2.66	THA.L
7.741433143615723	-3.646777391433716	-2.099602699279785	5	1.31	THA.R
-30.3640193939209	-4.568404197692871	-0.7899233102798462	1	0.12	HES.L
30.511850357055664	-3.3695969581604004	-0.4919534921646118	1	0.30	HES.R
-38.10430145263672	-5.815718650817871	-2.7648367881774902	1	0.79	STG.L
39.028236389160156	-6.577966690063477	-2.993511199951172	1	0.31	STG.R
-28.90188980102539	19.005836486816406	-21.689367294311523	3	0.00	TPOsup.L
32.167999267578125	18.735584259033203	-19.388763427734375	1	0.86	TPOsup.R
-39.739662170410156	-14.907252311706543	-9.230082511901855	4	0.00	MTG.L
38.55702590942383	-17.284080505371094	-8.724227905273438	4	0.83	MTG.R
-26.434978485107422	18.624711990356445	-31.321409225463867	5	0.01	TPOmid.L
29.375402450561523	18.596996307373047	-30.039445877075195	5	0.00	TPOmid.R
-35.75518798828125	-10.922778129577637	-23.761295318603516	3	0.00	ITG.L
35.93766403198242	-13.015495300292969	-23.172286987304688	4	0.00	ITG.R
